<?xml version="1.0" encoding="UTF-8" standalone="no"?>
<!-- Created with Inkscape (http://www.inkscape.org/) -->

<svg
   xmlns:dc="http://purl.org/dc/elements/1.1/"
   xmlns:cc="http://creativecommons.org/ns#"
   xmlns:rdf="http://www.w3.org/1999/02/22-rdf-syntax-ns#"
   xmlns:svg="http://www.w3.org/2000/svg"
   xmlns="http://www.w3.org/2000/svg"
   xmlns:sodipodi="http://sodipodi.sourceforge.net/DTD/sodipodi-0.dtd"
   xmlns:inkscape="http://www.inkscape.org/namespaces/inkscape"
   width="128"
   height="128"
   id="svg2"
   version="1.1"
   inkscape:version="0.48.0 r9654"
   sodipodi:docname="green steps.svg">
  <title
     id="title3002">green steps </title>
  <defs
     id="defs4" />
  <sodipodi:namedview
     id="base"
     pagecolor="#ffffff"
     bordercolor="#666666"
     borderopacity="1.0"
     inkscape:pageopacity="0.0"
     inkscape:pageshadow="2"
     inkscape:zoom="3.7734375"
     inkscape:cx="64"
     inkscape:cy="64"
     inkscape:document-units="px"
     inkscape:current-layer="layer1"
     showgrid="false"
     inkscape:window-width="1280"
     inkscape:window-height="712"
     inkscape:window-x="-4"
     inkscape:window-y="-4"
     inkscape:window-maximized="1" />
  <metadata
     id="metadata7">
    <rdf:RDF>
      <cc:Work
         rdf:about="">
        <dc:format>image/svg+xml</dc:format>
        <dc:type
           rdf:resource="http://purl.org/dc/dcmitype/StillImage" />
        <dc:title>green steps </dc:title>
        <dc:subject>
          <rdf:Bag>
            <rdf:li>foot print</rdf:li>
            <rdf:li>footprint</rdf:li>
            <rdf:li>green footprint</rdf:li>
            <rdf:li>steps</rdf:li>
          </rdf:Bag>
        </dc:subject>
        <dc:date>2012-08-12</dc:date>
        <dc:creator>
          <cc:Agent>
            <dc:title>srinivasbala from netalloy.com</dc:title>
          </cc:Agent>
        </dc:creator>
        <dc:publisher>
          <cc:Agent>
            <dc:title>netalloy.com</dc:title>
          </cc:Agent>
        </dc:publisher>
        <cc:license
           rdf:resource="http://creativecommons.org/licenses/publicdomain/" />
      </cc:Work>
      <cc:License
         rdf:about="http://creativecommons.org/licenses/publicdomain/">
        <cc:permits
           rdf:resource="http://creativecommons.org/ns#Reproduction" />
        <cc:permits
           rdf:resource="http://creativecommons.org/ns#Distribution" />
        <cc:permits
           rdf:resource="http://creativecommons.org/ns#DerivativeWorks" />
      </cc:License>
    </rdf:RDF>
  </metadata>
  <g
     inkscape:label="Layer 1"
     inkscape:groupmode="layer"
     id="layer1"
     transform="translate(0,-924.36218)">
    <path
       style="fill:#66cc33;fill-opacity:1;stroke:#000000;stroke-width:0.06429005px;stroke-linecap:butt;stroke-linejoin:miter;stroke-opacity:1"
       d="m 25.721148,966.50582 c -0.307905,-9.46347 7.840912,-15.16898 14.911128,-17.33855 7.219842,-2.21549 16.819243,2.06566 19.189382,10.74155 2.622838,9.60047 -9.400155,14.72357 -9.333446,25.2857 0.0493,7.90382 9.003852,17.89428 7.178656,25.70818 -0.840689,3.5993 -4.42383,5.9226 -7.191035,6.5807 -2.46434,0.586 -5.100213,-0.6704 -6.840848,-2.7109 -3.944497,-4.6246 -3.817547,-13.292 -6.346842,-19.47238 -3.612275,-8.82626 -11.25449,-19.19111 -11.566995,-28.7943 z"
       id="path4069"
       inkscape:connector-curvature="0"
       sodipodi:nodetypes="sssssssss" />
    <path
       sodipodi:type="arc"
       style="fill:#66cc33;fill-opacity:1;stroke:#445a26;stroke-width:0.30000001;stroke-linecap:round;stroke-linejoin:bevel;stroke-miterlimit:4;stroke-opacity:1;stroke-dasharray:none;stroke-dashoffset:0"
       id="path4071"
       sodipodi:cx="-1575.838"
       sodipodi:cy="-392.15594"
       sodipodi:rx="109.09647"
       sodipodi:ry="131.31982"
       d="m -1466.7415,-392.15594 a 109.09647,131.31982 0 1 1 -218.193,0 109.09647,131.31982 0 1 1 218.193,0 z"
       transform="matrix(0.05992329,-0.00452099,-7.7166971e-4,0.06605017,149.34198,958.65441)" />
    <path
       transform="matrix(0.03382538,-0.00428774,-0.00149029,0.04116555,96.042455,950.00606)"
       d="m -1466.7415,-392.15594 a 109.09647,131.31982 0 1 1 -218.193,0 109.09647,131.31982 0 1 1 218.193,0 z"
       sodipodi:ry="131.31982"
       sodipodi:rx="109.09647"
       sodipodi:cy="-392.15594"
       sodipodi:cx="-1575.838"
       id="path4073"
       style="fill:#66cc33;fill-opacity:1;stroke:#445a26;stroke-width:0.30000001;stroke-linecap:round;stroke-linejoin:bevel;stroke-miterlimit:4;stroke-opacity:1;stroke-dasharray:none;stroke-dashoffset:0"
       sodipodi:type="arc" />
    <path
       sodipodi:type="arc"
       style="fill:#66cc33;fill-opacity:1;stroke:#445a26;stroke-width:0.30000001;stroke-linecap:round;stroke-linejoin:bevel;stroke-miterlimit:4;stroke-opacity:1;stroke-dasharray:none;stroke-dashoffset:0"
       id="path4772"
       sodipodi:cx="-1575.838"
       sodipodi:cy="-392.15594"
       sodipodi:rx="109.09647"
       sodipodi:ry="131.31982"
       d="m -1466.7415,-392.15594 a 109.09647,131.31982 0 1 1 -218.193,0 109.09647,131.31982 0 1 1 218.193,0 z"
       transform="matrix(0.0295623,-0.00374736,-0.00130247,0.03597738,81.099562,951.86588)" />
    <path
       transform="matrix(0.02743076,-0.00347716,-0.00120852,0.0333833,70.308738,957.08339)"
       d="m -1466.7415,-392.15594 a 109.09647,131.31982 0 1 1 -218.193,0 109.09647,131.31982 0 1 1 218.193,0 z"
       sodipodi:ry="131.31982"
       sodipodi:rx="109.09647"
       sodipodi:cy="-392.15594"
       sodipodi:cx="-1575.838"
       id="path4774"
       style="fill:#66cc33;fill-opacity:1;stroke:#445a26;stroke-width:0.30000001;stroke-linecap:round;stroke-linejoin:bevel;stroke-miterlimit:4;stroke-opacity:1;stroke-dasharray:none;stroke-dashoffset:0"
       sodipodi:type="arc" />
    <path
       sodipodi:type="arc"
       style="fill:#66cc33;fill-opacity:1;stroke:#445a26;stroke-width:0.30000001;stroke-linecap:round;stroke-linejoin:bevel;stroke-miterlimit:4;stroke-opacity:1;stroke-dasharray:none;stroke-dashoffset:0"
       id="path4776"
       sodipodi:cx="-1575.838"
       sodipodi:cy="-392.15594"
       sodipodi:rx="109.09647"
       sodipodi:ry="131.31982"
       d="m -1466.7415,-392.15594 a 109.09647,131.31982 0 1 1 -218.193,0 109.09647,131.31982 0 1 1 218.193,0 z"
       transform="matrix(0.02061044,-0.0026126,-9.0805292e-4,0.02508294,54.42307,961.82963)" />
    <path
       sodipodi:nodetypes="sssssssss"
       inkscape:connector-curvature="0"
       id="path4778"
       d="m 101.72605,994.80141 c 0.30791,-9.46344 -7.840906,-15.16895 -14.911122,-17.33854 -7.219842,-2.21548 -16.819243,2.06566 -19.189382,10.74156 -2.622838,9.60045 9.400155,14.72357 9.333446,25.28557 -0.0504,7.904 -9.003852,17.8944 -7.178656,25.7083 0.840689,3.5993 4.42383,5.9227 7.191035,6.5807 2.46434,0.5859 5.100213,-0.6704 6.840848,-2.711 3.944497,-4.6244 3.817547,-13.292 6.346842,-19.4723 3.612275,-8.8263 11.254489,-19.191 11.566989,-28.79429 z"
       style="fill:#66cc33;fill-opacity:1;stroke:#000000;stroke-width:0.06429005px;stroke-linecap:butt;stroke-linejoin:miter;stroke-opacity:1" />
    <path
       transform="matrix(-0.05992329,-0.00452099,7.7166971e-4,0.06605017,-21.894779,986.95004)"
       d="m -1466.7415,-392.15594 a 109.09647,131.31982 0 1 1 -218.193,0 109.09647,131.31982 0 1 1 218.193,0 z"
       sodipodi:ry="131.31982"
       sodipodi:rx="109.09647"
       sodipodi:cy="-392.15594"
       sodipodi:cx="-1575.838"
       id="path4780"
       style="fill:#66cc33;fill-opacity:1;stroke:#445a26;stroke-width:0.30000001;stroke-linecap:round;stroke-linejoin:bevel;stroke-miterlimit:4;stroke-opacity:1;stroke-dasharray:none;stroke-dashoffset:0"
       sodipodi:type="arc" />
    <path
       sodipodi:type="arc"
       style="fill:#66cc33;fill-opacity:1;stroke:#445a26;stroke-width:0.30000001;stroke-linecap:round;stroke-linejoin:bevel;stroke-miterlimit:4;stroke-opacity:1;stroke-dasharray:none;stroke-dashoffset:0"
       id="path4782"
       sodipodi:cx="-1575.838"
       sodipodi:cy="-392.15594"
       sodipodi:rx="109.09647"
       sodipodi:ry="131.31982"
       d="m -1466.7415,-392.15594 a 109.09647,131.31982 0 1 1 -218.193,0 109.09647,131.31982 0 1 1 218.193,0 z"
       transform="matrix(-0.03382538,-0.00428774,0.00149029,0.04116555,31.404749,978.30168)" />
    <path
       transform="matrix(-0.0295623,-0.00374736,0.00130247,0.03597738,46.347642,980.16148)"
       d="m -1466.7415,-392.15594 a 109.09647,131.31982 0 1 1 -218.193,0 109.09647,131.31982 0 1 1 218.193,0 z"
       sodipodi:ry="131.31982"
       sodipodi:rx="109.09647"
       sodipodi:cy="-392.15594"
       sodipodi:cx="-1575.838"
       id="path4784"
       style="fill:#66cc33;fill-opacity:1;stroke:#445a26;stroke-width:0.30000001;stroke-linecap:round;stroke-linejoin:bevel;stroke-miterlimit:4;stroke-opacity:1;stroke-dasharray:none;stroke-dashoffset:0"
       sodipodi:type="arc" />
    <path
       sodipodi:type="arc"
       style="fill:#66cc33;fill-opacity:1;stroke:#445a26;stroke-width:0.30000001;stroke-linecap:round;stroke-linejoin:bevel;stroke-miterlimit:4;stroke-opacity:1;stroke-dasharray:none;stroke-dashoffset:0"
       id="path4786"
       sodipodi:cx="-1575.838"
       sodipodi:cy="-392.15594"
       sodipodi:rx="109.09647"
       sodipodi:ry="131.31982"
       d="m -1466.7415,-392.15594 a 109.09647,131.31982 0 1 1 -218.193,0 109.09647,131.31982 0 1 1 218.193,0 z"
       transform="matrix(-0.02743076,-0.00347716,0.00120852,0.0333833,57.138466,985.379)" />
    <path
       transform="matrix(-0.02061044,-0.0026126,9.0805292e-4,0.02508294,73.024134,990.1253)"
       d="m -1466.7415,-392.15594 a 109.09647,131.31982 0 1 1 -218.193,0 109.09647,131.31982 0 1 1 218.193,0 z"
       sodipodi:ry="131.31982"
       sodipodi:rx="109.09647"
       sodipodi:cy="-392.15594"
       sodipodi:cx="-1575.838"
       id="path4788"
       style="fill:#66cc33;fill-opacity:1;stroke:#445a26;stroke-width:0.30000001;stroke-linecap:round;stroke-linejoin:bevel;stroke-miterlimit:4;stroke-opacity:1;stroke-dasharray:none;stroke-dashoffset:0"
       sodipodi:type="arc" />
    <path
       sodipodi:nodetypes="sssssssss"
       inkscape:connector-curvature="0"
       id="path4790"
       d="m 25.721148,966.50582 c -0.307905,-9.46347 7.840912,-15.16898 14.911128,-17.33855 7.219842,-2.21549 16.819243,2.06566 19.189382,10.74155 2.622838,9.60047 -9.400155,14.72357 -9.333446,25.2857 0.0493,7.90382 9.003852,17.89428 7.178656,25.70818 -0.840689,3.5993 -4.42383,5.9226 -7.191035,6.5807 -2.46434,0.586 -5.100213,-0.6704 -6.840848,-2.7109 -3.944497,-4.6246 -3.817547,-13.292 -6.346842,-19.47238 -3.612275,-8.82626 -11.25449,-19.19111 -11.566995,-28.7943 z"
       style="fill:#66cc33;fill-opacity:1;stroke:#000000;stroke-width:0.06429005px;stroke-linecap:butt;stroke-linejoin:miter;stroke-opacity:1" />
    <path
       transform="matrix(0.05992329,-0.00452099,-7.7166971e-4,0.06605017,149.34198,958.65441)"
       d="m -1466.7415,-392.15594 a 109.09647,131.31982 0 1 1 -218.193,0 109.09647,131.31982 0 1 1 218.193,0 z"
       sodipodi:ry="131.31982"
       sodipodi:rx="109.09647"
       sodipodi:cy="-392.15594"
       sodipodi:cx="-1575.838"
       id="path4792"
       style="fill:#66cc33;fill-opacity:1;stroke:#445a26;stroke-width:0.30000001;stroke-linecap:round;stroke-linejoin:bevel;stroke-miterlimit:4;stroke-opacity:1;stroke-dasharray:none;stroke-dashoffset:0"
       sodipodi:type="arc" />
    <path
       sodipodi:type="arc"
       style="fill:#66cc33;fill-opacity:1;stroke:#445a26;stroke-width:0.30000001;stroke-linecap:round;stroke-linejoin:bevel;stroke-miterlimit:4;stroke-opacity:1;stroke-dasharray:none;stroke-dashoffset:0"
       id="path4794"
       sodipodi:cx="-1575.838"
       sodipodi:cy="-392.15594"
       sodipodi:rx="109.09647"
       sodipodi:ry="131.31982"
       d="m -1466.7415,-392.15594 a 109.09647,131.31982 0 1 1 -218.193,0 109.09647,131.31982 0 1 1 218.193,0 z"
       transform="matrix(0.03382538,-0.00428774,-0.00149029,0.04116555,96.042455,950.00606)" />
    <path
       transform="matrix(0.0295623,-0.00374736,-0.00130247,0.03597738,81.099562,951.86588)"
       d="m -1466.7415,-392.15594 a 109.09647,131.31982 0 1 1 -218.193,0 109.09647,131.31982 0 1 1 218.193,0 z"
       sodipodi:ry="131.31982"
       sodipodi:rx="109.09647"
       sodipodi:cy="-392.15594"
       sodipodi:cx="-1575.838"
       id="path4796"
       style="fill:#66cc33;fill-opacity:1;stroke:#445a26;stroke-width:0.30000001;stroke-linecap:round;stroke-linejoin:bevel;stroke-miterlimit:4;stroke-opacity:1;stroke-dasharray:none;stroke-dashoffset:0"
       sodipodi:type="arc" />
    <path
       sodipodi:type="arc"
       style="fill:#66cc33;fill-opacity:1;stroke:#445a26;stroke-width:0.30000001;stroke-linecap:round;stroke-linejoin:bevel;stroke-miterlimit:4;stroke-opacity:1;stroke-dasharray:none;stroke-dashoffset:0"
       id="path4798"
       sodipodi:cx="-1575.838"
       sodipodi:cy="-392.15594"
       sodipodi:rx="109.09647"
       sodipodi:ry="131.31982"
       d="m -1466.7415,-392.15594 a 109.09647,131.31982 0 1 1 -218.193,0 109.09647,131.31982 0 1 1 218.193,0 z"
       transform="matrix(0.02743076,-0.00347716,-0.00120852,0.0333833,70.308738,957.08339)" />
    <path
       transform="matrix(0.02061044,-0.0026126,-9.0805292e-4,0.02508294,54.42307,961.82963)"
       d="m -1466.7415,-392.15594 a 109.09647,131.31982 0 1 1 -218.193,0 109.09647,131.31982 0 1 1 218.193,0 z"
       sodipodi:ry="131.31982"
       sodipodi:rx="109.09647"
       sodipodi:cy="-392.15594"
       sodipodi:cx="-1575.838"
       id="path4800"
       style="fill:#66cc33;fill-opacity:1;stroke:#445a26;stroke-width:0.30000001;stroke-linecap:round;stroke-linejoin:bevel;stroke-miterlimit:4;stroke-opacity:1;stroke-dasharray:none;stroke-dashoffset:0"
       sodipodi:type="arc" />
  </g>
</svg>
